<?xml version="1.0" standalone="no"?>
<!DOCTYPE svg PUBLIC "-//W3C//DTD SVG 20010904//EN"
 "http://www.w3.org/TR/2001/REC-SVG-20010904/DTD/svg10.dtd">
<svg version="1.0" xmlns="http://www.w3.org/2000/svg"
 width="401.000000pt" height="400.000000pt" viewBox="0 0 401.000000 400.000000"
 preserveAspectRatio="xMidYMid meet">
<metadata>
Created by potrace 1.15, written by Peter Selinger 2001-2017
</metadata>
<g transform="translate(0.000000,400.000000) scale(0.100000,-0.100000)"
fill="#000000" stroke="none">
<path d="M1780 3994 c-14 -2 -59 -9 -100 -15 -41 -5 -125 -23 -186 -39 -578
-152 -1065 -559 -1316 -1098 -54 -117 -122 -327 -149 -457 -31 -156 -38 -486
-14 -658 122 -869 766 -1538 1640 -1704 130 -25 469 -29 617 -8 523 74 1005
354 1319 766 267 351 409 769 409 1200 0 250 -29 438 -101 654 -146 440 -448
823 -842 1067 -207 129 -458 226 -709 274 -79 15 -505 29 -568 18z m577 -198
c568 -125 1028 -490 1274 -1011 76 -161 122 -311 155 -510 25 -150 24 -436 -4
-585 -76 -416 -289 -801 -587 -1062 -254 -222 -523 -356 -865 -430 -91 -19
-135 -22 -330 -23 -198 0 -238 3 -335 23 -568 120 -1026 470 -1280 979 -160
323 -226 708 -180 1057 100 761 642 1367 1388 1550 156 39 229 45 452 41 166
-3 219 -8 312 -29z"/>
<path d="M1855 3713 c-73 -6 -237 -33 -251 -41 -11 -6 2 -32 62 -117 42 -60
79 -115 81 -122 3 -8 -6 -15 -26 -19 -17 -4 -31 -10 -31 -15 0 -5 34 -66 75
-135 41 -69 75 -130 75 -134 0 -5 -15 -12 -32 -15 -48 -11 -50 -14 -30 -43 33
-48 154 -263 151 -267 -2 -2 -62 -21 -134 -43 l-130 -40 -3 -91 -3 -91 296 0
295 0 0 78 0 77 -82 17 c-80 17 -228 80 -228 97 0 5 38 69 85 142 l85 133 -35
20 c-19 11 -35 26 -35 32 0 7 36 68 80 136 l80 122 -35 18 c-19 10 -35 20 -35
21 0 2 43 59 95 127 51 69 92 126 90 129 -3 2 -55 10 -117 17 -105 12 -248 15
-343 7z"/>
<path d="M2420 3663 c0 -3 36 -52 80 -109 44 -57 80 -107 80 -113 0 -5 -16
-12 -35 -15 -19 -4 -35 -9 -35 -12 0 -3 38 -64 85 -135 47 -72 85 -134 85
-139 0 -4 -18 -11 -40 -15 -22 -4 -40 -11 -40 -15 0 -12 163 -270 170 -270 3
0 18 26 34 57 l28 57 -24 17 -23 18 51 103 c51 102 51 103 31 119 -21 16 -20
17 36 108 31 51 57 97 57 101 0 18 -175 115 -300 167 -84 35 -240 84 -240 76z"/>
<path d="M1410 3616 c-129 -46 -352 -163 -428 -226 l-24 -20 47 -82 c26 -46
50 -87 52 -91 3 -5 -4 -11 -16 -14 -12 -3 -21 -7 -21 -9 0 -3 20 -48 45 -101
45 -96 46 -103 10 -116 -5 -2 11 -48 38 -101 26 -53 47 -102 47 -110 0 -7 -24
-22 -52 -33 l-53 -20 -3 -77 -3 -76 196 0 195 0 0 80 c0 77 -1 80 -23 80 -36
0 -147 40 -200 73 l-48 29 30 52 c16 28 51 89 78 136 l50 85 -28 17 c-15 9
-30 21 -33 27 -4 6 27 68 69 138 l75 126 -30 15 c-17 8 -30 18 -30 23 0 5 32
53 70 108 39 54 70 102 70 105 0 9 -8 7 -80 -18z"/>
<path d="M3071 3330 c8 -14 25 -42 38 -62 l23 -38 -25 -9 -25 -10 54 -103 c58
-112 60 -118 42 -118 -7 0 -19 -4 -27 -9 -11 -7 -3 -31 43 -120 31 -61 55
-115 52 -119 -3 -5 -37 -19 -75 -32 l-71 -23 0 -74 0 -73 266 0 265 0 -6 23
c-34 113 -152 335 -250 469 -64 87 -227 257 -285 298 l-35 25 16 -25z"/>
<path d="M779 3212 c-137 -141 -240 -285 -324 -452 -38 -75 -85 -192 -85 -210
0 -6 85 -10 225 -10 l225 0 0 63 c0 62 -1 63 -32 75 -18 6 -45 22 -60 34 l-26
23 47 100 c47 99 47 100 27 116 -20 17 -20 17 22 106 23 48 42 92 42 97 0 5
-8 14 -17 21 -15 11 -14 16 11 59 15 26 26 49 24 52 -3 2 -38 -31 -79 -74z"/>
<path d="M2685 2784 c-27 -8 -87 -26 -132 -40 l-83 -25 0 -89 0 -90 205 0 205
0 0 58 0 57 -73 35 c-74 36 -81 47 -62 93 8 20 5 20 -60 1z"/>
<path d="M1136 2388 c-3 -57 -11 -209 -17 -338 -9 -178 -17 -257 -34 -327 -19
-81 -20 -95 -8 -113 18 -26 50 -11 59 28 4 15 30 54 59 87 117 135 198 269
229 374 19 65 21 187 4 245 -8 26 -31 60 -65 94 l-52 52 -84 0 -85 0 -6 -102z
m194 24 c58 -57 73 -140 50 -276 -14 -90 -99 -255 -165 -324 -30 -30 -57 -54
-59 -51 -4 4 18 504 27 611 5 62 20 78 69 78 33 0 47 -7 78 -38z"/>
<path d="M1877 2168 c-4 -261 -9 -337 -23 -398 -10 -41 -18 -91 -18 -110 l-1
-35 85 1 c93 1 183 18 200 39 15 18 1 48 -19 39 -9 -4 -58 -10 -110 -12 l-94
-4 7 68 c19 199 27 375 21 514 -4 92 -2 168 4 188 9 31 9 32 -19 32 l-28 0 -5
-322z"/>
<path d="M1562 2215 c-43 -36 -53 -56 -68 -138 -7 -38 -20 -82 -28 -99 -10
-19 -12 -36 -7 -47 5 -9 19 -56 31 -106 24 -98 63 -181 93 -196 47 -26 110 19
147 104 25 57 18 75 -13 32 -33 -46 -77 -85 -97 -85 -38 0 -80 81 -80 155 0
43 1 45 29 45 39 0 109 54 134 104 22 42 34 129 23 170 -8 30 -62 74 -103 82
-23 4 -36 0 -61 -21z m92 -48 c45 -33 27 -156 -29 -206 -62 -54 -95 -37 -95
49 0 131 58 205 124 157z"/>
<path d="M2499 2206 c-98 -72 -139 -153 -118 -232 6 -21 36 -78 66 -126 67
-106 65 -129 -10 -167 -40 -20 -56 -22 -102 -16 l-54 6 -17 77 c-22 96 -25
286 -6 321 12 20 12 26 -1 39 -20 19 -45 9 -57 -23 -20 -52 -6 -317 21 -419 9
-34 13 -38 36 -33 13 2 38 -2 55 -10 62 -31 177 7 223 74 33 50 32 69 -11 123
-66 83 -88 130 -88 185 0 64 29 120 89 173 74 65 54 87 -26 28z"/>
<path d="M2790 2189 c-14 -11 -41 -30 -60 -42 -66 -42 -101 -183 -99 -400 0
-166 28 -224 85 -181 36 26 60 73 82 163 l19 73 11 -54 c17 -85 29 -108 55
-108 13 0 28 5 35 12 17 17 15 48 -2 48 -30 0 -57 159 -61 361 -3 159 -10 172
-65 128z m3 -127 c10 -50 -20 -269 -50 -367 -22 -69 -47 -84 -57 -34 -16 83 2
351 29 415 12 30 19 35 42 32 24 -3 29 -9 36 -46z"/>
<path d="M370 1450 c0 -23 74 -193 124 -282 79 -145 159 -250 281 -374 249
-252 535 -408 877 -479 287 -59 618 -39 897 54 436 146 821 490 1009 901 36
80 72 170 72 183 0 4 -733 7 -1630 7 -1072 0 -1630 -3 -1630 -10z m1639 -121
c16 -48 13 -99 -10 -165 -28 -79 -22 -193 20 -376 17 -76 31 -153 31 -172 0
-42 -33 -86 -59 -79 -43 11 -53 38 -71 190 -36 287 -41 309 -94 382 -42 58
-56 100 -56 166 0 37 5 57 18 68 28 25 45 6 50 -57 6 -74 27 -69 27 5 0 58 8
79 30 79 20 0 27 -16 35 -79 l7 -56 2 67 c1 69 10 83 42 67 9 -5 22 -23 28
-40z m868 36 c75 -22 87 -41 93 -143 l5 -87 33 -3 c24 -3 35 -10 43 -28 19
-52 11 -78 -36 -121 l-45 -40 0 -99 c0 -82 -4 -105 -20 -132 -28 -45 -94 -74
-163 -70 -50 3 -53 5 -64 38 -9 28 -12 30 -12 12 -1 -32 -37 -26 -65 11 -20
27 -21 42 -24 311 -3 274 -2 283 18 309 39 50 146 69 237 42z m-1660 -15 c18
-10 40 -32 49 -47 10 -15 19 -30 21 -32 2 -3 16 7 31 21 72 66 108 73 153 29
41 -41 39 -80 -6 -120 l-35 -30 73 -3 72 -3 3 -82 c2 -69 0 -83 -13 -83 -13 0
-15 -21 -15 -140 l0 -140 -262 2 -263 3 -3 138 c-1 80 -7 137 -12 137 -6 0
-10 37 -10 85 l0 85 71 0 71 0 -30 28 c-38 35 -48 73 -32 113 25 59 79 75 137
39z m1041 -145 c47 -50 45 -104 -8 -210 -38 -76 -40 -85 -42 -185 -2 -58 -1
-166 2 -241 4 -118 2 -139 -13 -162 -11 -17 -26 -27 -41 -27 -48 0 -51 15 -51
279 l0 246 -32 72 c-18 39 -33 88 -33 108 0 49 26 101 64 130 59 44 105 41
154 -10z"/>
<path d="M1962 1290 c3 -72 2 -75 -20 -78 -13 -2 -32 4 -43 14 -18 16 -19 16
-19 -4 0 -23 -24 -30 -35 -12 -4 6 -10 8 -15 5 -11 -7 -20 20 -20 60 0 19 -4
37 -10 40 -23 14 -10 -90 19 -151 27 -58 31 -61 58 -56 15 3 32 10 36 16 6 7
7 6 4 -4 -2 -8 -16 -16 -30 -18 -15 -2 -27 -4 -27 -5 0 -1 9 -25 19 -53 24
-62 49 -202 61 -338 5 -55 13 -102 19 -104 6 -2 9 -7 7 -11 -3 -4 4 -8 15 -8
11 -1 17 2 14 7 -3 4 -1 10 3 12 5 1 12 35 15 73 3 39 2 61 -2 50 -12 -31 -62
193 -67 300 -3 62 -1 84 5 70 9 -17 10 -14 9 15 -1 19 7 57 16 85 18 51 15
125 -5 155 -7 10 -9 -8 -7 -60z"/>
<path d="M2660 976 c0 -134 4 -237 9 -241 10 -6 16 9 27 68 5 27 11 37 22 35
16 -3 19 -15 37 -120 6 -36 8 -38 45 -38 47 0 83 13 110 40 17 17 20 33 20
110 0 105 12 140 64 192 42 42 40 68 -5 68 -36 0 -59 32 -59 82 0 21 -2 38 -4
38 -2 0 -20 -7 -39 -15 -20 -8 -61 -15 -92 -15 -31 0 -72 7 -92 15 -19 8 -37
15 -39 15 -2 0 -4 -105 -4 -234z"/>
<path d="M1030 1085 l0 -55 90 0 90 0 0 55 0 55 -90 0 -90 0 0 -55z"/>
<path d="M1370 1085 l0 -55 85 0 85 0 0 55 0 55 -85 0 -85 0 0 -55z"/>
<path d="M1052 878 l3 -123 78 -3 77 -3 0 126 0 125 -80 0 -81 0 3 -122z"/>
<path d="M1242 878 l3 -123 43 -3 42 -3 0 125 0 126 -45 0 -46 0 3 -122z"/>
<path d="M1360 875 l0 -125 80 0 80 0 0 125 0 125 -80 0 -80 0 0 -125z"/>
<path d="M2130 1212 c-44 -21 -70 -73 -69 -132 l2 -45 6 51 c7 55 29 97 61
114 27 15 92 9 98 -8 3 -11 0 -12 -16 -3 -33 18 -60 13 -93 -17 -27 -24 -32
-37 -38 -97 -7 -63 -5 -76 18 -125 26 -55 26 -56 24 -287 -2 -202 0 -232 13
-237 9 -3 20 -4 25 0 5 3 9 1 9 -5 0 -5 -8 -12 -17 -14 -14 -4 -13 -5 4 -6 16
-1 24 8 33 34 6 19 9 43 7 52 -3 13 -5 10 -6 -7 -1 -14 -5 -30 -9 -37 -4 -6
-6 21 -4 60 2 40 0 113 -5 162 -9 104 -1 261 15 277 8 8 9 4 6 -13 -3 -13 13
14 35 61 52 109 56 167 12 211 -34 33 -61 36 -111 11z"/>
</g>
</svg>
